{"accessors" : [{"bufferView" : 0, "byteOffset" : 0, "componentType" : 5123, "count" : 342, "type" : "SCALAR", "max" : [341], "min" : [0]}, {"bufferView" : 1, "byteOffset" : 0, "componentType" : 5126, "count" : 342, "type" : "VEC3", "max" : [10905.900390625, 10909.900390625, 10913.900390625], "min" : [-6.099244117736816, -2.0992441177368164, 1.9007558822631836]}, {"bufferView" : 1, "byteOffset" : 12, "componentType" : 5126, "count" : 342, "type" : "VEC3", "max" : [10917.900390625, 10921.900390625, 10925.900390625], "min" : [5.900755882263184, 9.900755882263184, 13.900755882263184]}, {"bufferView" : 1, "byteOffset" : 24, "componentType" : 5126, "count" : 342, "type" : "VEC2", "max" : [10929.900390625, 10933.900390625], "min" : [17.9007568359375, 21.9007568359375]}, {"bufferView" : 0, "byteOffset" : 684, "componentType" : 5123, "count" : 4560, "type" : "SCALAR", "max" : [4559], "min" : [0]}, {"bufferView" : 2, "byteOffset" : 0, "componentType" : 5126, "count" : 4560, "type" : "VEC3", "max" : [145892.234375, 145896.234375, 145900.234375], "min" : [4.2290802001953125, 8.229080200195312, 12.229080200195312]}, {"bufferView" : 2, "byteOffset" : 12, "componentType" : 5126, "count" : 4560, "type" : "VEC3", "max" : [145904.234375, 145908.234375, 145912.234375], "min" : [16.229080200195312, 20.229080200195312, 24.229080200195312]}, {"bufferView" : 2, "byteOffset" : 24, "componentType" : 5126, "count" : 4560, "type" : "VEC2", "max" : [145916.234375, 145920.234375], "min" : [28.229080200195312, 32.22908020019531]}, {"bufferView" : 0, "byteOffset" : 9804, "componentType" : 5125, "count" : 74508, "type" : "SCALAR", "max" : [74507], "min" : [0]}, {"bufferView" : 3, "byteOffset" : 0, "componentType" : 5126, "count" : 74508, "type" : "VEC3", "max" : [2384281.75, 2384285.75, 2384289.75], "min" : [57.66234588623047, 61.66234588623047, 65.66234588623047]}, {"bufferView" : 3, "byteOffset" : 12, "componentType" : 5126, "count" : 74508, "type" : "VEC3", "max" : [2384293.75, 2384297.75, 2384301.75], "min" : [69.66234588623047, 73.66234588623047, 77.66234588623047]}, {"bufferView" : 3, "byteOffset" : 24, "componentType" : 5126, "count" : 74508, "type" : "VEC2", "max" : [2384305.75, 2384309.75], "min" : [81.66234588623047, 85.66234588623047]}, {"bufferView" : 0, "byteOffset" : 307836, "componentType" : 5123, "count" : 7236, "type" : "SCALAR", "max" : [7235], "min" : [0]}, {"bufferView" : 4, "byteOffset" : 0, "componentType" : 5126, "count" : 7236, "type" : "VEC3", "max" : [231606.796875, 231610.796875, 231614.796875], "min" : [86.80052185058594, 90.80052185058594, 94.80052185058594]}, {"bufferView" : 4, "byteOffset" : 12, "componentType" : 5126, "count" : 7236, "type" : "VEC3", "max" : [231618.796875, 231622.796875, 231626.796875], "min" : [98.80052185058594, 102.80052185058594, 106.80052185058594]}, {"bufferView" : 4, "byteOffset" : 24, "componentType" : 5126, "count" : 7236, "type" : "VEC2", "max" : [231630.796875, 231634.796875], "min" : [110.80052185058594, 114.80052185058594]}, {"bufferView" : 0, "byteOffset" : 322308, "componentType" : 5123, "count" : 20736, "type" : "SCALAR", "max" : [20735], "min" : [0]}, {"bufferView" : 5, "byteOffset" : 0, "componentType" : 5126, "count" : 20736, "type" : "VEC3", "max" : [663513.9375, 663517.9375, 663521.9375], "min" : [-6.090717792510986, -2.0907177925109863, 1.9092822074890137]}, {"bufferView" : 5, "byteOffset" : 12, "componentType" : 5126, "count" : 20736, "type" : "VEC3", "max" : [663525.9375, 663529.9375, 663533.9375], "min" : [5.909282207489014, 9.909282684326172, 13.909282684326172]}, {"bufferView" : 5, "byteOffset" : 24, "componentType" : 5126, "count" : 20736, "type" : "VEC2", "max" : [663537.9375, 663541.9375], "min" : [17.909282684326172, 21.909282684326172]}, {"bufferView" : 0, "byteOffset" : 363780, "componentType" : 5123, "count" : 2310, "type" : "SCALAR", "max" : [2309], "min" : [0]}, {"bufferView" : 6, "byteOffset" : 0, "componentType" : 5126, "count" : 2310, "type" : "VEC3", "max" : [73891.9453125, 73895.9453125, 73899.9453125], "min" : [3.9456939697265625, 7.9456939697265625, 11.945693969726562]}, {"bufferView" : 6, "byteOffset" : 12, "componentType" : 5126, "count" : 2310, "type" : "VEC3", "max" : [73903.9453125, 73907.9453125, 73911.9453125], "min" : [15.945693969726562, 19.945693969726562, 23.945693969726562]}, {"bufferView" : 6, "byteOffset" : 24, "componentType" : 5126, "count" : 2310, "type" : "VEC2", "max" : [73915.9453125, 73919.9453125], "min" : [27.945693969726562, 31.945693969726562]}], "asset" : {"generator" : "Aspose.3D 20.8", "version" : "2.0"}, "buffers" : [{"uri" : "buffer.bin", "byteLength" : 3878572}], "bufferViews" : [{"buffer" : 0, "byteOffset" : 0, "byteLength" : 368400, "target" : 34963}, {"buffer" : 0, "byteOffset" : 368404, "byteLength" : 10944, "byteStride" : 32, "target" : 34962}, {"buffer" : 0, "byteOffset" : 379352, "byteLength" : 145920, "byteStride" : 32, "target" : 34962}, {"buffer" : 0, "byteOffset" : 525276, "byteLength" : 2384256, "byteStride" : 32, "target" : 34962}, {"buffer" : 0, "byteOffset" : 2909536, "byteLength" : 231552, "byteStride" : 32, "target" : 34962}, {"buffer" : 0, "byteOffset" : 3141092, "byteLength" : 663552, "byteStride" : 32, "target" : 34962}, {"buffer" : 0, "byteOffset" : 3804648, "byteLength" : 73920, "byteStride" : 32, "target" : 34962}], "meshes" : [{"primitives" : [{"attributes" : {"POSITION" : 1, "NORMAL" : 2, "TEXCOORD_0" : 3}, "indices" : 0, "mode" : 4}]}, {"primitives" : [{"attributes" : {"POSITION" : 5, "NORMAL" : 6, "TEXCOORD_0" : 7}, "indices" : 4, "mode" : 4}]}, {"primitives" : [{"attributes" : {"POSITION" : 9, "NORMAL" : 10, "TEXCOORD_0" : 11}, "indices" : 8, "mode" : 4}]}, {"primitives" : [{"attributes" : {"POSITION" : 13, "NORMAL" : 14, "TEXCOORD_0" : 15}, "indices" : 12, "mode" : 4}]}, {"primitives" : [{"attributes" : {"POSITION" : 17, "NORMAL" : 18, "TEXCOORD_0" : 19}, "indices" : 16, "mode" : 4}]}, {"primitives" : [{"attributes" : {"POSITION" : 21, "NORMAL" : 22, "TEXCOORD_0" : 23}, "indices" : 20, "mode" : 4}]}], "nodes" : [{"mesh" : 0, "name" : "Eyelashes"}, {"mesh" : 1, "name" : "default"}, {"mesh" : 2, "name" : "Body"}, {"mesh" : 3, "name" : "Gloves"}, {"mesh" : 4, "name" : "Hair"}, {"mesh" : 5, "name" : "Bottoms"}], "scene" : 0, "scenes" : [{"nodes" : [0, 1, 2, 3, 4, 5]}]}